<?xml version="1.0" encoding="UTF-8" standalone="no"?>
<!-- Creator: CorelDRAW -->

<svg
   xmlns:dc="http://purl.org/dc/elements/1.1/"
   xmlns:cc="http://creativecommons.org/ns#"
   xmlns:rdf="http://www.w3.org/1999/02/22-rdf-syntax-ns#"
   xmlns:svg="http://www.w3.org/2000/svg"
   xmlns="http://www.w3.org/2000/svg"
   xmlns:sodipodi="http://sodipodi.sourceforge.net/DTD/sodipodi-0.dtd"
   xmlns:inkscape="http://www.inkscape.org/namespaces/inkscape"
   xml:space="preserve"
   width="600"
   height="600"
   style="fill-rule:evenodd"
   viewBox="0 0 169.33333 169.33334"
   id="svg2"
   version="1.1"
   inkscape:version="0.47pre4 r22446"
   sodipodi:docname="drehung der aspidenlinie.svg"><metadata
   id="metadata131"><rdf:RDF><cc:Work
       rdf:about=""><dc:format>image/svg+xml</dc:format><dc:type
         rdf:resource="http://purl.org/dc/dcmitype/StillImage" /><dc:title></dc:title></cc:Work></rdf:RDF></metadata><sodipodi:namedview
   pagecolor="#ffffff"
   bordercolor="#666666"
   borderopacity="1"
   objecttolerance="10"
   gridtolerance="10"
   guidetolerance="10"
   inkscape:pageopacity="0"
   inkscape:pageshadow="2"
   inkscape:window-width="1280"
   inkscape:window-height="958"
   id="namedview129"
   showgrid="false"
   inkscape:zoom="0.84145707"
   inkscape:cx="300"
   inkscape:cy="300"
   inkscape:window-x="-4"
   inkscape:window-y="-3"
   inkscape:window-maximized="1"
   inkscape:current-layer="_81315960"><inkscape:grid
     type="xygrid"
     id="grid2939"
     empspacing="5"
     visible="true"
     enabled="true"
     snapvisiblegridlinesonly="true" /></sodipodi:namedview>
 <defs
   id="defs4"><marker
   inkscape:stockid="Arrow1Mend"
   orient="auto"
   refY="0"
   refX="0"
   id="Arrow1Mend"
   style="overflow:visible"><path
     id="path3748"
     d="M 0,0 5,-5 -12.5,0 5,5 0,0 z"
     style="fill-rule:evenodd;stroke:#000000;stroke-width:1pt;marker-start:none"
     transform="matrix(-0.4,0,0,-0.4,-4,0)" /></marker><marker
   inkscape:stockid="Arrow1Mstart"
   orient="auto"
   refY="0"
   refX="0"
   id="Arrow1Mstart"
   style="overflow:visible"><path
     id="path3745"
     d="M 0,0 5,-5 -12.5,0 5,5 0,0 z"
     style="fill-rule:evenodd;stroke:#000000;stroke-width:1pt;marker-start:none"
     transform="matrix(0.4,0,0,0.4,4,0)" /></marker><inkscape:perspective
   sodipodi:type="inkscape:persp3d"
   inkscape:vp_x="0 : 85.039368 : 1"
   inkscape:vp_y="0 : 1000 : 0"
   inkscape:vp_z="184.25197 : 85.039368 : 1"
   inkscape:persp3d-origin="92.125984 : 56.692912 : 1"
   id="perspective133" />
  <style
   type="text/css"
   id="style6">
   
    .str3 {stroke:#0093DD;stroke-width:0.2501}
    .str0 {stroke:#1F1A17;stroke-width:0.2501}
    .str2 {stroke:yellow;stroke-width:0.2501}
    .str1 {stroke:#1F1A17;stroke-width:0.2501;stroke-dasharray:0.250100 0.750300}
    .fil0 {fill:none}
    .fil3 {fill:#0093DD}
    .fil2 {fill:#FFCC33}
    .fil1 {fill:#1F1A17;fill-rule:nonzero}
   
  </style>
 <inkscape:perspective
   id="perspective2949"
   inkscape:persp3d-origin="0.5 : 0.33333333 : 1"
   inkscape:vp_z="1 : 0.5 : 1"
   inkscape:vp_y="0 : 1000 : 0"
   inkscape:vp_x="0 : 0.5 : 1"
   sodipodi:type="inkscape:persp3d" /><inkscape:perspective
   id="perspective5140"
   inkscape:persp3d-origin="0.5 : 0.33333333 : 1"
   inkscape:vp_z="1 : 0.5 : 1"
   inkscape:vp_y="0 : 1000 : 0"
   inkscape:vp_x="0 : 0.5 : 1"
   sodipodi:type="inkscape:persp3d" /><marker
   inkscape:stockid="Arrow1Mstart"
   orient="auto"
   refY="0"
   refX="0"
   id="Arrow1Mstart-0"
   style="overflow:visible"><path
     id="path3745-5"
     d="M 0,0 5,-5 -12.5,0 5,5 0,0 z"
     style="fill-rule:evenodd;stroke:#000000;stroke-width:1pt;marker-start:none"
     transform="matrix(0.4,0,0,0.4,4,0)" /></marker></defs>
 <g
   id="Warstwa_x0020_1"
   transform="translate(0,121.33334)">
  <metadata
   id="CorelCorpID_0Corel-Layer" />
  <g
   id="_81315960">
   
   
   
   
   
   
   
   
   
   
   
   
   
   
   
   
   
   
   
   
   
   
   
   
   
   
   
   
   
   
   
   
   
   
   
   
   
   
   
   
   
   
   
   
   
   
   
   
   
   
   
   
   
   
   
   
   
   
  <g
   id="g5201"
   transform="matrix(3.36,0,0,3.36,-2.439097,-117.30349)"><path
     d="M 5.7823,39.3088 C 4.5248,37.4348 3.8727,35.4061 3.8727,33.356 c 0,-8.1267 10.0053,-14.7172 22.3428,-14.7172 12.3376,0 22.3429,6.5905 22.3429,14.7172 0,4.8099 -3.5708,9.3181 -9.558,12.0689"
     class="fil0 str0"
     id="_81556760"
     style="fill:none;stroke:#1f1a17;stroke-width:0.25009999" /><g
     id="g12">
    <path
   d="m 46.7325,38.9145 0.2477,0.1662 -0.0263,1.672 -0.3555,-0.0055 0.0263,-1.6721 0.2477,0.1663 -0.1399,-0.3269 z m 0,0 0.252,-0.1079 -0.0043,0.2741 -0.2477,-0.1662 z m -1.4678,0.8216 -0.0699,-0.1635 1.5377,-0.6581 0.1399,0.3269 -1.5377,0.6581 -0.07,-0.1634 z m -6.2125,5.8021 -0.1036,-0.2266 0.3099,-0.1454 0.3061,-0.1483 0.3019,-0.1516 0.2978,-0.1554 0.2929,-0.1581 0.2891,-0.1612 0.2846,-0.1645 0.2796,-0.1676 0.2757,-0.1705 0.2711,-0.1736 0.2659,-0.1767 0.2618,-0.179 0.2569,-0.1823 0.2518,-0.1852 0.2473,-0.1876 0.2424,-0.1902 0.237,-0.1934 0.2323,-0.1957 0.2269,-0.1982 0.2222,-0.2008 0.2169,-0.2033 0.2113,-0.2053 0.2064,-0.2082 0.201,-0.2107 0.1953,-0.2124 0.1901,-0.2148 0.1847,-0.217 0.179,-0.2193 0.1729,-0.2214 0.1678,-0.2235 0.1619,-0.2256 0.1561,-0.2272 0.2072,0.1388 -0.1591,0.232 -0.1649,0.2296 -0.1706,0.2273 -0.1769,0.2254 -0.182,0.2231 -0.1875,0.221 -0.1931,0.2186 -0.1991,0.2164 -0.204,0.2135 -0.2094,0.2112 -0.2151,0.2093 -0.2199,0.2061 -0.2252,0.2038 -0.2307,0.2012 -0.2353,0.1985 -0.2408,0.1954 -0.2454,0.1932 -0.2503,0.1904 -0.2556,0.1872 -0.2599,0.1843 -0.2646,0.182 -0.2699,0.1785 -0.2741,0.1756 -0.2785,0.1725 -0.2836,0.1696 -0.2876,0.1663 -0.2919,0.1632 -0.2969,0.1601 -0.3006,0.1564 -0.3049,0.1536 -0.3091,0.1501 -0.3137,0.1464 z"
   class="fil1"
   id="_81556328"
   style="fill:#1f1a17;fill-rule:nonzero" />
   </g><line
     id="line15"
     y2="21.7328"
     x2="46.508999"
     y1="37.016201"
     x1="4.5181999"
     class="fil0 str1"
     style="fill:none;stroke:#1f1a17;stroke-width:0.25009999;stroke-dasharray:0.2501, 0.7503" /><line
     id="line17"
     y2="33.356098"
     x2="48.558498"
     y1="33.356098"
     x1="3.8728001"
     class="fil0 str1"
     style="fill:none;stroke:#1f1a17;stroke-width:0.25009999;stroke-dasharray:0.2501, 0.7503" /><ellipse
     id="ellipse19"
     ry="12.8441"
     rx="19.4991"
     transform="matrix(1.07673,-0.391899,0.391899,1.07673,25.5135,29.3746)"
     class="fil0 str0"
     cx="0"
     cy="0"
     sodipodi:cx="0"
     sodipodi:cy="0"
     sodipodi:rx="19.4991"
     sodipodi:ry="12.8441"
     style="fill:none;stroke:#1f1a17;stroke-width:0.25009999"
     d="M 19.4991,0 C 19.4991,7.0936006 10.769055,12.8441 0,12.8441 -10.769055,12.8441 -19.4991,7.0936006 -19.4991,0 c 0,-7.0936006 8.730045,-12.8441 19.4991,-12.8441 10.769055,0 19.4991,5.7504994 19.4991,12.8441 z" /><line
     id="line21"
     y2="11.5115"
     x2="40.6078"
     y1="40.234901"
     x1="6.3765998"
     class="fil0 str1"
     style="fill:none;stroke:#1f1a17;stroke-width:0.25009999;stroke-dasharray:0.2501, 0.7503" /><ellipse
     id="ellipse23"
     ry="12.8441"
     rx="19.4991"
     transform="matrix(0.87776,-0.736528,0.736528,0.87776,23.4921,25.8733)"
     class="fil0 str0"
     cx="0"
     cy="0"
     sodipodi:cx="0"
     sodipodi:cy="0"
     sodipodi:rx="19.4991"
     sodipodi:ry="12.8441"
     style="fill:none;stroke:#1f1a17;stroke-width:0.25009999"
     d="M 19.4991,0 C 19.4991,7.0936006 10.769055,12.8441 0,12.8441 -10.769055,12.8441 -19.4991,7.0936006 -19.4991,0 c 0,-7.0936006 8.730045,-12.8441 19.4991,-12.8441 10.769055,0 19.4991,5.7504994 19.4991,12.8441 z" /><line
     id="line25"
     y2="3.9249001"
     x2="31.566601"
     y1="42.623901"
     x1="9.2236996"
     class="fil0 str1"
     style="fill:none;stroke:#1f1a17;stroke-width:0.25009999;stroke-dasharray:0.2501, 0.7503" /><line
     id="line27"
     y2="3.9249001"
     x2="31.566601"
     y1="42.623901"
     x1="9.2236996"
     class="fil0 str1"
     style="fill:none;stroke:#1f1a17;stroke-width:0.25009999;stroke-dasharray:0.2501, 0.7503" /><path
     id="path29"
     d="M 13.9199,8.1025 C 19.8754,2.7468 26.7196,1.1265 31.5666,3.925 38.6045,7.9885 39.3094,19.9486 33.1407,30.6331 26.9718,41.3177 16.2617,46.6873 9.2237,42.6239"
     class="fil0 str0"
     style="fill:none;stroke:#1f1a17;stroke-width:0.25009999" /><g
     id="g31">
    <path
   id="path33"
   d="M 13.7427,8.4626 13.5431,8.2408 13.9779,6.6261 14.3213,6.7185 13.8865,8.3333 13.687,8.1114 13.7427,8.4626 z m 0,0 -0.2708,0.0429 0.0712,-0.2647 0.1996,0.2218 z m 1.6242,-0.4373 0.0278,0.1756 -1.652,0.2617 -0.0557,-0.3512 1.652,-0.2617 0.0279,0.1756 z m 8.4439,-5.3361 0.046,0.2452 -0.3093,0.0619 -0.3096,0.0689 -0.3106,0.076 -0.3112,0.0826 -0.3116,0.09 -0.3121,0.0963 -0.3128,0.1037 -0.3126,0.11 -0.3131,0.1169 -0.3128,0.124 -0.3132,0.1302 -0.313,0.1369 -0.3128,0.1434 -0.3126,0.1501 -0.3121,0.1565 -0.3118,0.163 -0.3111,0.1694 -0.3111,0.1759 -0.3098,0.1821 -0.3094,0.1884 -0.3082,0.1947 -0.3077,0.2008 -0.3066,0.2072 -0.305,0.2126 -0.3042,0.2192 -0.303,0.2253 -0.3015,0.2313 -0.3001,0.2367 -0.2991,0.2431 -0.2968,0.249 -0.2952,0.2543 -0.2934,0.2605 -0.167,-0.1856 0.2962,-0.2625 0.2982,-0.2573 0.2998,-0.2508 0.3009,-0.2451 0.3031,-0.2397 0.3045,-0.2331 0.3058,-0.2273 0.3072,-0.2212 0.309,-0.2156 0.3094,-0.209 0.3107,-0.2028 0.312,-0.1967 0.3124,-0.1904 0.3138,-0.1841 0.3139,-0.1777 0.3151,-0.1714 0.3156,-0.165 0.3161,-0.1585 0.3164,-0.1519 0.3168,-0.1454 0.317,-0.1389 0.317,-0.1322 0.3176,-0.125 0.3171,-0.1187 0.3174,-0.112 0.3168,-0.1047 0.3169,-0.0983 0.3166,-0.091 0.316,-0.0844 0.3156,-0.077 0.3154,-0.0699 0.3141,-0.0629 z"
   class="fil1"
   style="fill:#1f1a17;fill-rule:nonzero" />
   </g><ellipse
     style="fill:#c87137;stroke:#a05a2c;stroke-width:0.25009999"
     id="ellipse35"
     ry="3.4162199"
     rx="3.41625"
     cy="33.355999"
     cx="14.5739"
     class="fil2 str2"
     sodipodi:cx="14.5739"
     sodipodi:cy="33.355999"
     sodipodi:rx="3.41625"
     sodipodi:ry="3.4162199"
     d="m 17.99015,33.355999 c 0,1.886726 -1.529507,3.41622 -3.41625,3.41622 -1.886743,0 -3.41625,-1.529494 -3.41625,-3.41622 0,-1.886726 1.529507,-3.41622 3.41625,-3.41622 1.886743,0 3.41625,1.529494 3.41625,3.41622 z" /><circle
     id="circle61"
     r="0.2005"
     transform="matrix(2.15346,-0.783797,0.783797,2.15346,4.5182,37.0162)"
     class="fil3 str3"
     cx="0"
     cy="0"
     sodipodi:cx="0"
     sodipodi:cy="0"
     sodipodi:rx="0.2005"
     sodipodi:ry="0.2005"
     style="fill:#0093dd;stroke:#0093dd;stroke-width:0.25009999"
     d="m 0.2005,0 c 0,0.11073309 -0.0897669,0.2005 -0.2005,0.2005 -0.11073309,0 -0.2005,-0.0897669 -0.2005,-0.2005 0,-0.11073309 0.0897669,-0.2005 0.2005,-0.2005 0.11073309,0 0.2005,0.0897669 0.2005,0.2005 z" /><circle
     id="circle63"
     r="0.2005"
     transform="matrix(2.00265,-0.728906,0.783797,2.15346,4.51822,37.0162)"
     class="fil3 str3"
     cx="0"
     cy="0"
     sodipodi:cx="0"
     sodipodi:cy="0"
     sodipodi:rx="0.2005"
     sodipodi:ry="0.2005"
     style="fill:#0093dd;stroke:#0093dd;stroke-width:0.25009999"
     d="m 0.2005,0 c 0,0.11073309 -0.0897669,0.2005 -0.2005,0.2005 -0.11073309,0 -0.2005,-0.0897669 -0.2005,-0.2005 0,-0.11073309 0.0897669,-0.2005 0.2005,-0.2005 0.11073309,0 0.2005,0.0897669 0.2005,0.2005 z" /><circle
     id="circle65"
     r="0.2005"
     transform="matrix(2.00265,-0.728906,0.783797,2.15346,3.87278,33.3561)"
     class="fil3 str3"
     cx="0"
     cy="0"
     sodipodi:cx="0"
     sodipodi:cy="0"
     sodipodi:rx="0.2005"
     sodipodi:ry="0.2005"
     style="fill:#0093dd;stroke:#0093dd;stroke-width:0.25009999"
     d="m 0.2005,0 c 0,0.11073309 -0.0897669,0.2005 -0.2005,0.2005 -0.11073309,0 -0.2005,-0.0897669 -0.2005,-0.2005 0,-0.11073309 0.0897669,-0.2005 0.2005,-0.2005 0.11073309,0 0.2005,0.0897669 0.2005,0.2005 z" /><circle
     id="circle73"
     r="0.2005"
     transform="matrix(1.75552,-1.47306,1.47306,1.75552,6.37656,40.2349)"
     class="fil3 str3"
     cx="0"
     cy="0"
     sodipodi:cx="0"
     sodipodi:cy="0"
     sodipodi:rx="0.2005"
     sodipodi:ry="0.2005"
     style="fill:#0093dd;stroke:#0093dd;stroke-width:0.25009999"
     d="m 0.2005,0 c 0,0.11073309 -0.0897669,0.2005 -0.2005,0.2005 -0.11073309,0 -0.2005,-0.0897669 -0.2005,-0.2005 0,-0.11073309 0.0897669,-0.2005 0.2005,-0.2005 0.11073309,0 0.2005,0.0897669 0.2005,0.2005 z" /><circle
     id="circle75"
     r="0.2005"
     transform="matrix(1.63258,-1.3699,1.47306,1.75552,6.37657,40.2349)"
     class="fil3 str3"
     cx="0"
     cy="0"
     sodipodi:cx="0"
     sodipodi:cy="0"
     sodipodi:rx="0.2005"
     sodipodi:ry="0.2005"
     style="fill:#0093dd;stroke:#0093dd;stroke-width:0.25009999"
     d="m 0.2005,0 c 0,0.11073309 -0.0897669,0.2005 -0.2005,0.2005 -0.11073309,0 -0.2005,-0.0897669 -0.2005,-0.2005 0,-0.11073309 0.0897669,-0.2005 0.2005,-0.2005 0.11073309,0 0.2005,0.0897669 0.2005,0.2005 z" /><circle
     id="circle83"
     r="0.2005"
     transform="matrix(1.14583,-1.98464,1.98464,1.14583,9.2237,42.6239)"
     class="fil3 str3"
     cx="0"
     cy="0"
     sodipodi:cx="0"
     sodipodi:cy="0"
     sodipodi:rx="0.2005"
     sodipodi:ry="0.2005"
     style="fill:#0093dd;stroke:#0093dd;stroke-width:0.25009999"
     d="m 0.2005,0 c 0,0.11073309 -0.0897669,0.2005 -0.2005,0.2005 -0.11073309,0 -0.2005,-0.0897669 -0.2005,-0.2005 0,-0.11073309 0.0897669,-0.2005 0.2005,-0.2005 0.11073309,0 0.2005,0.0897669 0.2005,0.2005 z" /><circle
     id="circle85"
     r="0.2005"
     transform="matrix(1.06559,-1.84566,1.98464,1.14583,9.22371,42.6239)"
     class="fil3 str3"
     cx="0"
     cy="0"
     sodipodi:cx="0"
     sodipodi:cy="0"
     sodipodi:rx="0.2005"
     sodipodi:ry="0.2005"
     style="fill:#0093dd;stroke:#0093dd;stroke-width:0.25009999"
     d="m 0.2005,0 c 0,0.11073309 -0.0897669,0.2005 -0.2005,0.2005 -0.11073309,0 -0.2005,-0.0897669 -0.2005,-0.2005 0,-0.11073309 0.0897669,-0.2005 0.2005,-0.2005 0.11073309,0 0.2005,0.0897669 0.2005,0.2005 z" /><circle
     id="circle93"
     r="0.2005"
     transform="matrix(1.14583,-1.98464,1.98464,1.14583,9.2237,42.6239)"
     class="fil3 str3"
     cx="0"
     cy="0"
     sodipodi:cx="0"
     sodipodi:cy="0"
     sodipodi:rx="0.2005"
     sodipodi:ry="0.2005"
     style="fill:#0093dd;stroke:#0093dd;stroke-width:0.25009999"
     d="m 0.2005,0 c 0,0.11073309 -0.0897669,0.2005 -0.2005,0.2005 -0.11073309,0 -0.2005,-0.0897669 -0.2005,-0.2005 0,-0.11073309 0.0897669,-0.2005 0.2005,-0.2005 0.11073309,0 0.2005,0.0897669 0.2005,0.2005 z" /><circle
     id="circle95"
     r="0.2005"
     transform="matrix(1.06559,-1.84566,1.98464,1.14583,9.22371,42.6239)"
     class="fil3 str3"
     cx="0"
     cy="0"
     sodipodi:cx="0"
     sodipodi:cy="0"
     sodipodi:rx="0.2005"
     sodipodi:ry="0.2005"
     style="fill:#0093dd;stroke:#0093dd;stroke-width:0.25009999"
     d="m 0.2005,0 c 0,0.11073309 -0.0897669,0.2005 -0.2005,0.2005 -0.11073309,0 -0.2005,-0.0897669 -0.2005,-0.2005 0,-0.11073309 0.0897669,-0.2005 0.2005,-0.2005 0.11073309,0 0.2005,0.0897669 0.2005,0.2005 z" /><g
     id="g5174"><path
       sodipodi:nodetypes="ccccc"
       id="ellipse35-3"
       d="m 18.823321,28.149034 c 1.395253,1.137675 2.324465,2.81772 2.457929,4.725966 l 0.21875,0 c -0.139797,-1.998785 -1.126044,-3.777083 -2.603013,-4.955248 -0.677805,-0.50341 -0.666982,-0.225873 -0.07367,0.229282 z"
       style="font-size:medium;font-style:normal;font-variant:normal;font-weight:normal;font-stretch:normal;text-indent:0;text-align:start;text-decoration:none;line-height:normal;letter-spacing:normal;word-spacing:normal;text-transform:none;direction:ltr;block-progression:tb;writing-mode:lr-tb;text-anchor:start;color:#000000;fill:#4d4d4d;fill-opacity:1;stroke:none;stroke-width:0.21166667;marker:none;visibility:visible;display:inline;overflow:visible;enable-background:accumulate;font-family:Bitstream Vera Sans;-inkscape-font-specification:Bitstream Vera Sans" /><path
       id="path5178"
       d="m 19.04829,28.123526 0.586713,-0.119123 -1.469008,-0.465363 1.001419,1.171199 -0.119124,-0.586713 z"
       style="fill:#4d4d4d;fill-rule:evenodd;stroke:none;stroke-width:0.4pt;marker-start:none" /></g></g></g>
 </g>
</svg>